HIERARCHY
ROOT hip
{
  OFFSET 0 0 0
  CHANNELS 6 Xposition Yposition Zposition Zrotation Yrotation Xrotation
  JOINT abdomen
  {
    OFFSET 0 20.6881 -0.73152
    CHANNELS 3 Zrotation Xrotation Yrotation
    JOINT chest
    {
      OFFSET 0 11.7043 -0.48768
      CHANNELS 3 Zrotation Xrotation Yrotation
      JOINT neck
      {
        OFFSET 0 22.1894 -2.19456
        CHANNELS 3 Zrotation Xrotation Yrotation
        JOINT head
        {
          OFFSET -0.24384 7.07133 1.2192
          CHANNELS 3 Zrotation Xrotation Yrotation
          JOINT leftEye
          {
            OFFSET 4.14528 8.04674 8.04672
            CHANNELS 3 Zrotation Xrotation Yrotation
            End Site
            {
              OFFSET 1 0 0
            }
          }
          JOINT rightEye
          {
            OFFSET -3.6576 8.04674 8.04672
            CHANNELS 3 Zrotation Xrotation Yrotation
            End Site
            {
              OFFSET 1 0 0
            }
          }
        }
      }
      JOINT rCollar
      {
        OFFSET -2.68224 19.2634 -4.8768
        CHANNELS 3 Zrotation Xrotation Yrotation
        JOINT rShldr
        {
          OFFSET -8.77824 -1.95073 1.46304
          CHANNELS 3 Zrotation Xrotation Yrotation
          JOINT rForeArm
          {
            OFFSET -28.1742 -1.7115 0.48768
            CHANNELS 3 Zrotation Xrotation Yrotation
            JOINT rHand
            {
              OFFSET -22.5879 0.773209 7.07136
              CHANNELS 3 Zrotation Xrotation Yrotation
              JOINT rThumb1
              {
                OFFSET -1.2192 -0.487915 3.41376
                CHANNELS 3 Zrotation Xrotation Yrotation
                JOINT rThumb2
                {
                  OFFSET -3.37035 -0.52449 3.41376
                  CHANNELS 3 Zrotation Xrotation Yrotation
                  End Site
                  {
                    OFFSET -1.78271 -1.18214 1.43049
                  }
                }
              }
              JOINT rIndex1
              {
                OFFSET -7.75947 0.938293 5.60832
                CHANNELS 3 Zrotation Xrotation Yrotation
                JOINT rIndex2
                {
                  OFFSET -2.54057 -0.884171 1.56538
                  CHANNELS 3 Zrotation Xrotation Yrotation
                  End Site
                  {
                    OFFSET -1.62519 -0.234802 1.16502
                  }
                }
              }
              JOINT rMid1
              {
                OFFSET -8.24714 1.18213 3.41376
                CHANNELS 3 Zrotation Xrotation Yrotation
                JOINT rMid2
                {
                  OFFSET -3.10165 -0.590103 1.0647
                  CHANNELS 3 Zrotation Xrotation Yrotation
                  End Site
                  {
                    OFFSET -2.48547 -0.328903 0.83742
                  }
                }
              }
              JOINT rRing1
              {
                OFFSET -8.82822 0.546677 1.51678
                CHANNELS 3 Zrotation Xrotation Yrotation
                JOINT rRing2
                {
                  OFFSET -2.60934 -0.819778 -0.0198488
                  CHANNELS 3 Zrotation Xrotation Yrotation
                  End Site
                  {
                    OFFSET -2.33842 -0.294052 0.168128
                  }
                }
              }
              JOINT rPinky1
              {
                OFFSET -8.27202 -0.0477905 -0.4584
                CHANNELS 3 Zrotation Xrotation Yrotation
                JOINT rPinky2
                {
                  OFFSET -1.82734 -0.647385 -0.700984
                  CHANNELS 3 Zrotation Xrotation Yrotation
                  End Site
                  {
                    OFFSET -1.69225 -0.51767 -0.607171
                  }
                }
              }
            }
          }
        }
      }
      JOINT lCollar
      {
        OFFSET 2.68224 19.2634 -4.8768
        CHANNELS 3 Zrotation Xrotation Yrotation
        JOINT lShldr
        {
          OFFSET 8.77824 -1.95073 1.46304
          CHANNELS 3 Zrotation Xrotation Yrotation
          JOINT lForeArm
          {
            OFFSET 28.1742 -1.7115 0.48768
            CHANNELS 3 Zrotation Xrotation Yrotation
            JOINT lHand
            {
              OFFSET 22.5879 0.773209 7.07136
              CHANNELS 3 Zrotation Xrotation Yrotation
              JOINT lThumb1
              {
                OFFSET 1.2192 -0.487915 3.41376
                CHANNELS 3 Zrotation Xrotation Yrotation
                JOINT lThumb2
                {
                  OFFSET 3.37035 -0.52449 3.41376
                  CHANNELS 3 Zrotation Xrotation Yrotation
                  End Site
                  {
                    OFFSET 1.78271 -1.18214 1.43049
                  }
                }
              }
              JOINT lIndex1
              {
                OFFSET 7.75947 0.938293 5.60832
                CHANNELS 3 Zrotation Xrotation Yrotation
                JOINT lIndex2
                {
                  OFFSET 2.54057 -0.884171 1.56538
                  CHANNELS 3 Zrotation Xrotation Yrotation
                  End Site
                  {
                    OFFSET 1.62519 -0.234802 1.16502
                  }
                }
              }
              JOINT lMid1
              {
                OFFSET 8.24714 1.18213 3.41376
                CHANNELS 3 Zrotation Xrotation Yrotation
                JOINT lMid2
                {
                  OFFSET 3.10165 -0.590103 1.0647
                  CHANNELS 3 Zrotation Xrotation Yrotation
                  End Site
                  {
                    OFFSET 2.48547 -0.328903 0.83742
                  }
                }
              }
              JOINT lRing1
              {
                OFFSET 8.82822 0.546677 1.51678
                CHANNELS 3 Zrotation Xrotation Yrotation
                JOINT lRing2
                {
                  OFFSET 2.60934 -0.819778 -0.0198488
                  CHANNELS 3 Zrotation Xrotation Yrotation
                  End Site
                  {
                    OFFSET 2.33842 -0.294052 0.168128
                  }
                }
              }
              JOINT lPinky1
              {
                OFFSET 8.27202 -0.0477905 -0.4584
                CHANNELS 3 Zrotation Xrotation Yrotation
                JOINT lPinky2
                {
                  OFFSET 1.82734 -0.647385 -0.700984
                  CHANNELS 3 Zrotation Xrotation Yrotation
                  End Site
                  {
                    OFFSET 1.69225 -0.51767 -0.607171
                  }
                }
              }
            }
          }
        }
      }
    }
  }
  JOINT rButtock
  {
    OFFSET -8.77824 4.35084 1.2192
    CHANNELS 3 Zrotation Xrotation Yrotation
    JOINT rThigh
    {
      OFFSET 0 -1.70687 -2.19456
      CHANNELS 3 Zrotation Xrotation Yrotation
      JOINT rShin
      {
        OFFSET 0 -36.8199 0.73152
        CHANNELS 3 Zrotation Xrotation Yrotation
        JOINT rFoot
        {
          OFFSET 0.73152 -45.1104 -5.12064
          CHANNELS 3 Zrotation Xrotation Yrotation
          End Site
          {
            OFFSET -1.1221 -3.69964 12.103
          }
        }
      }
    }
  }
  JOINT lButtock
  {
    OFFSET 8.77824 4.35084 1.2192
    CHANNELS 3 Zrotation Xrotation Yrotation
    JOINT lThigh
    {
      OFFSET 0 -1.70687 -2.19456
      CHANNELS 3 Zrotation Xrotation Yrotation
      JOINT lShin
      {
        OFFSET 0 -36.8199 0.73152
        CHANNELS 3 Zrotation Xrotation Yrotation
        JOINT lFoot
        {
          OFFSET -0.73152 -45.1104 -5.12064
          CHANNELS 3 Zrotation Xrotation Yrotation
          End Site
          {
            OFFSET 1.1221 -3.69964 12.103
          }
        }
      }
    }
  }
}
MOTION
Frames:	4
Frame Time:	0.00833333
0.0 0.0 0.0 0.0 0.0 0.0 0.0 0.0 0.0 0.0 0.0 0.0 0.0 0.0 0.0 0.0 0.0 0.0 0.0 0.0 0.0 0.0 0.0 0.0 0.0 0.0 0.0 0.0 0.0 0.0 0.0 0.0 0.0 0.0 0.0 0.0 0.0 0.0 0.0 0.0 0.0 0.0 0.0 0.0 0.0 0.0 0.0 0.0 0.0 0.0 0.0 0.0 0.0 0.0 0.0 0.0 0.0 0.0 0.0 0.0 0.0 0.0 0.0 0.0 0.0 0.0 0.0 0.0 0.0 0.0 0.0 0.0 0.0 0.0 0.0 0.0 0.0 0.0 0.0 0.0 0.0 0.0 0.0 0.0 0.0 0.0 0.0 0.0 0.0 0.0 0.0 0.0 0.0 0.0 0.0 0.0 0.0 0.0 0.0 0.0 0.0 0.0 0.0 0.0 0.0 0.0 0.0 0.0 0.0 0.0 0.0 0.0 0.0 0.0 0.0 0.0 0.0 0.0 0.0 0.0 0.0 0.0 0.0 0.0 0.0 0.0 0.0 0.0 0.0 0.0 0.0 0.0
73.0724 83.466 -16.0461 177.107486 -85.952528 -171.913504 -1.278967 -3.709414 95.91145 0.921408 -2.525445 -92.774623 -9.630979 15.750042 -95.734668 18.400124 13.456912 92.568813 0.001536 -0.0 -0.001489 -0.003838 0.0 -0.001711 -151.972487 14.763727 157.37033 -10.18669 13.069634 23.841393 16.302434 -3.999838 -38.235729 176.437474 3.274753 145.716874 9.390574 -9.380871 -0.6821 -132.475504 -25.853452 119.080238 -138.492836 4.89568 114.864057 2.054661 13.10813 -6.650158 -0.28719 0.83252 0.161716 13.836119 -31.956588 -1.310215 -145.117578 0.239357 -179.205839 -135.819065 -63.554205 -157.803309 7.928643 24.811607 7.00211 -23.236329 -40.065511 -23.543236 33.844696 -85.665283 55.262003 141.767709 -73.347546 144.062531 -9.31825 -9.979673 43.447465 -168.581859 -17.977667 -143.998367 -1.590274 -1.57583 0.222903 -63.928187 -79.592378 2.658881 138.494528 4.896686 -114.864805 169.422447 -26.651196 -118.3038 4.103928 11.116562 -2.538079 -3.535931 -0.785126 0.124913 145.111092 -0.627092 178.931059 71.228516 -78.000643 92.793141 3.228155 -7.78564 3.009541 24.121565 -41.365047 24.963565 0.000167 -0.000846 0.000167 1.52512 -10.946146 180.0 -2.226182 -13.571531 -165.446425 154.512929 -38.3852 22.225279 179.942767 75.748675 0.04709 -178.089396 63.551426 178.930331 -5.473458 -20.048162 -67.675274 -122.471385 -44.879524 135.271564
72.5074 83.70689999999999 -15.7852 173.862926 -85.837006 -168.517872 1.160175 -6.944053 -180.0 0.085658 -1.769304 -173.400361 -7.425696 23.997163 -134.958086 15.850586 30.154698 127.269337 0.001939 0.0 8.8e-05 0.001939 0.0 8.8e-05 -155.578065 -3.999444 161.941449 -137.434947 70.521025 103.723298 -158.062561 -4.219777 136.154397 137.987175 -59.450891 120.430058 -169.572018 -7.253924 89.929511 -168.745357 -7.371982 87.957027 -156.962143 -27.55111 122.440973 11.764678 1.167831 -9.695415 6.910461 -21.623803 -2.807921 -164.071492 -6.966341 143.553068 0.002749 0.063725 0.020306 -156.078584 -51.345103 178.402007 -1.17834 -2.985422 -1.09144 2.070981 -1.315549 -0.391823 150.168048 21.535037 -155.274905 -80.018326 -55.97417 -101.172507 160.185201 -82.388901 141.637722 5.899057 27.652755 -1.652704 3.030299 2.964135 -0.541975 136.546476 -39.163723 -116.871172 140.686445 1.505703 -116.181881 2.759223 21.663214 4.099499 -6.534185 -20.414805 2.716524 5.944304 23.265926 -5.03461 -0.000719 0.063699 -0.020961 -11.493907 -26.218053 3.145384 136.275976 -10.95615 133.618719 161.829911 55.929109 146.858498 0.0 0.000423 -0.000258 0.68065 -13.523682 127.86936 13.612279 -21.591149 -51.537145 -125.122673 -73.252825 149.773879 0.000125 0.000423 -0.000161 0.903535 -18.356108 0.301603 -2.880155 19.097389 -35.806924 81.904887 29.567826 -10.102122
71.9494 83.86980000000001 -15.507000000000001 170.463977 -85.674059 -164.999893 1.2275 -3.176908 0.119112 -0.03611 -4.384248 9.494688 5.516678 24.074348 135.163951 -26.26731 25.411576 -137.229457 -0.003068 0.0 -0.0016 0.001753 -0.0 -0.00249 -138.676792 46.079186 142.852814 75.222233 -29.921342 105.401577 -31.837905 85.012753 -22.615504 161.705054 -32.702452 140.396343 -4.034668 3.931662 0.754849 -137.195086 -40.328418 116.521928 -129.576823 16.761079 108.785603 -64.827506 55.863507 45.561531 -175.765858 -50.334663 144.097915 177.147003 -53.041331 139.49331 -71.925915 72.973296 89.772288 -80.944418 83.187728 89.873283 -157.773745 58.853709 -150.67255 -148.80374 13.191306 -142.394064 159.22148 -48.725115 -170.566923 92.296981 -52.708703 52.085466 169.48998 -2.730836 148.545686 4.971245 28.692039 -2.12396 89.136027 38.427572 -50.299259 25.510861 -7.297482 -34.3486 14.227451 19.203904 -9.559268 -9.553925 -0.414092 0.839889 169.090199 -33.247259 -145.375134 -2.844732 0.814351 -0.44728 145.119922 0.226257 179.200261 54.911488 87.580966 -68.106751 77.070737 -51.587535 75.52987 -42.062514 80.39705 4.673431 -0.000302 0.001457 0.000388 1.506299 -14.297317 0.401072 11.062036 30.296677 96.311955 -162.356094 -18.612089 129.746461 179.995065 75.751027 0.003377 -179.303771 47.642089 -180.0 -9.571255 -33.341682 -128.278016 -173.858409 -26.048884 45.719515
